<?xml version="1.0" encoding="utf-8"?>
<!-- Generator: Adobe Illustrator 19.0.0, SVG Export Plug-In . SVG Version: 6.00 Build 0)  -->
<svg version="1.1" id="Layer_1" xmlns="http://www.w3.org/2000/svg" xmlns:xlink="http://www.w3.org/1999/xlink" x="0px" y="0px"
	 viewBox="0 0 327.6 22" style="enable-background:new 0 0 327.6 22;" xml:space="preserve">
<style type="text/css">
	.st0{display:none;fill:#C77529;}
	.st1{display:none;fill:#A76799;}
	.st2{fill:#6757A5;}
</style>
<path id="XMLID_1_" class="st0" d="M327.6,10.9c0,0-29.3-2-44.8-7.8c0,0-212.9,8.9-286.1,7.9c0,0,158.6,2.4,285.9,8.9
	C282.6,19.9,297.4,13.7,327.6,10.9z"/>
<path id="XMLID_106_" class="st1" d="M326.5,11.4c0,0-29.3-2-44.8-7.8c0,0-212.9,8.9-286.1,7.9c0,0,158.6,2.4,285.9,8.9
	C281.5,20.4,296.2,14.1,326.5,11.4z"/>
<path id="XMLID_107_" class="st2" d="M326.5,11.1c0,0-29.3-2-44.8-7.8c0,0-212.9,8.9-286.1,7.9c0,0,158.6,2.4,285.9,8.9
	C281.5,20.1,296.2,13.8,326.5,11.1z"/>
</svg>
