<?xml version="1.0" encoding="utf-8"?>
<!-- Generator: Adobe Illustrator 19.0.0, SVG Export Plug-In . SVG Version: 6.00 Build 0)  -->
<svg version="1.1" id="Layer_1" xmlns="http://www.w3.org/2000/svg" xmlns:xlink="http://www.w3.org/1999/xlink" x="0px" y="0px"
	 viewBox="0 0 392.5 22" style="enable-background:new 0 0 392.5 22;" xml:space="preserve">
<style type="text/css">
	.st0{fill:url(#XMLID_159_);}
</style>
<linearGradient id="XMLID_159_" gradientUnits="userSpaceOnUse" x1="1.5958" y1="11" x2="390.7375" y2="11">
	<stop  offset="0" style="stop-color:#409645"/>
	<stop  offset="1" style="stop-color:#BAD877"/>
</linearGradient>
<path id="XMLID_145_" class="st0" d="M1.7,8.1c0,0-1.3,9,6.8,8.5c0,0,8.3-0.7,13.8,0c0,0,4.8,1.5,13.3,0c0,0,8.8-1.6,33.5,0.7
	c0,0,11.5,0.3,16.3-1.2c0,0,33.8-3,58-0.5c0,0,46.5,3.8,90.3,0.5c0,0,38.7-2.8,71.2-1.5c0,0,20.8,1.6,46-1.8c0,0,19.3-2.6,39.8,0
	c0,0,4-1.4-16.3-3.4c0,0-1.6-0.5,16.6,0.3c0,0-0.4-2.4-5.6-2.5c-1.2,0-1.5-0.3-2.3-0.4c-0.5-0.1-1.8-0.7-2.3-0.7
	c-4.6-0.3-25.4-1.3-52.9,0.1c0,0-25.5,0.3-39.5-0.7c0,0-29.3-1.5-68.5,2c0,0-49,2.4-83-2.3c0,0-29.3-1.1-43,0c0,0-13.8,2-49.8-0.5
	c0,0-9.3-0.2-15.5,1c0,0-17.5,0.7-23-1C5.4,4.6,1.5,4.3,1.7,8.1z"/>
</svg>
