<?xml version="1.0" encoding="utf-8"?>
<!-- Generator: Adobe Illustrator 19.0.0, SVG Export Plug-In . SVG Version: 6.00 Build 0)  -->
<svg version="1.1" id="Layer_1" xmlns="http://www.w3.org/2000/svg" xmlns:xlink="http://www.w3.org/1999/xlink" x="0px" y="0px"
	 viewBox="0 0 296 13" style="enable-background:new 0 0 296 13;" xml:space="preserve">
<style type="text/css">
	.st0{fill:#3B161B;}
</style>
<path id="XMLID_145_" class="st0" d="M8.7,10.9c0,0,26.5,1,60-1.5c0,0,13-1.3,27.3,0c0,0,25.3,1.6,87.5,0.6c0,0,14.8-0.2,26.8,1.1
	c0,0,29.3,0.9,75.8-1.1c0,0,8.8-4.8-6.5-5.6c0,0-32.5-0.3-53-1.3c0,0-22.5-1.5-39.8,0c0,0-112,1.5-115.2,0.3S13.3,3,10.6,3
	S-5.4,9.8,8.7,10.9z"/>
</svg>
