<?xml version="1.0" encoding="utf-8"?>
<!-- Generator: Adobe Illustrator 19.0.0, SVG Export Plug-In . SVG Version: 6.00 Build 0)  -->
<svg version="1.1" id="Layer_1" xmlns="http://www.w3.org/2000/svg" xmlns:xlink="http://www.w3.org/1999/xlink" x="0px" y="0px"
	 viewBox="0 48 165 175" style="enable-background:new 0 48 165 175;" xml:space="preserve">
<style type="text/css">
	.st0{fill:url(#XMLID_2_);}
</style>
<linearGradient id="XMLID_2_" gradientUnits="userSpaceOnUse" x1="2.1577" y1="135.8479" x2="162.8" y2="135.8479">
	<stop  offset="0" style="stop-color:#F05861"/>
	<stop  offset="1" style="stop-color:#F6916A"/>
</linearGradient>
<path id="XMLID_6_" class="st0" d="M162.7,49.1c0,0-61.8,4.2-122.4,31.5v103.1c0,0-33.3-2.8-37.8,17.2c-0.9,4.2,0,8.7,2.4,12.3
	c4.6,6.8,15.6,15.8,38.9,2.7c0,0,9.5-6.8,9.5-15.9v-91.7c0,0,33.7-14.8,96.3-15.9v77.3c0,0-36-5.9-38.8,16.5
	c-0.5,3.7,0.2,7.4,2.1,10.6c4,6.9,14.8,17.1,40.3,3.9c1.3-0.7,2.5-1.6,3.5-2.7c1.6-1.7,3.7-4.5,5.2-8.6c0.6-1.6,0.9-3.4,0.9-5.1
	L162.7,49.1z M149.4,79.1C94,84,52.7,99.2,52.7,99.2V88.6C118.3,65.1,149.4,64,149.4,64V79.1z"/>
</svg>
